<svg xmlns="http://www.w3.org/2000/svg" width="2400" height="2350" viewBox="0 0 2400 2350">
<defs>
  <linearGradient id="titleGrad" x1="0" y1="0" x2="0" y2="1">
    <stop offset="0%" stop-color="#ffffff"/>
    <stop offset="100%" stop-color="#edf3fa"/>
  </linearGradient>
  <filter id="shadow" x="-20%" y="-20%" width="140%" height="140%">
    <feDropShadow dx="0" dy="10" stdDeviation="12" flood-color="#000000" flood-opacity="0.28"/>
  </filter>
  <filter id="softShadow" x="-20%" y="-20%" width="140%" height="140%">
    <feDropShadow dx="0" dy="6" stdDeviation="8" flood-color="#000000" flood-opacity="0.18"/>
  </filter>
  <marker id="arrow" markerWidth="12" markerHeight="12" refX="10" refY="6" orient="auto">
    <path d="M0,0 L12,6 L0,12 z" fill="#c9c9c9"/>
  </marker>
  <style>
    .title { font: 300 76px -apple-system,BlinkMacSystemFont,Segoe UI,Helvetica,Arial,sans-serif; fill: #4a88ca; }
    .subtitle { font: 500 18px -apple-system,BlinkMacSystemFont,Segoe UI,Helvetica,Arial,sans-serif; fill: #8ea8c4; }
    .section { font: 700 20px -apple-system,BlinkMacSystemFont,Segoe UI,Helvetica,Arial,sans-serif; fill: #d2d2d2; }
    .box-title { font: 700 22px -apple-system,BlinkMacSystemFont,Segoe UI,Helvetica,Arial,sans-serif; fill: #ffffff; }
    .field { font: 500 15px ui-monospace,SFMono-Regular,Menlo,Consolas,monospace; fill: #efefef; }
    .type { font: italic 600 14px ui-monospace,SFMono-Regular,Menlo,Consolas,monospace; fill: #b9b9b9; }
    .flag { font: 700 13px ui-monospace,SFMono-Regular,Menlo,Consolas,monospace; fill: #cfcfcf; }
    .link { stroke: #cbcbcb; stroke-width: 2.6; fill: none; opacity: .95; }
    .link-dashed { stroke: #b7b7b7; stroke-width: 2.2; fill: none; opacity: .9; stroke-dasharray: 8 7; }
    .card { fill: #3a3a3a; }
    .pk { fill: #ffd200; }
    .fk { fill: none; stroke: #d8a543; stroke-width: 1.8; }
    .emb { fill: #58c1f7; }
    .rel-label { font: 600 13px -apple-system,BlinkMacSystemFont,Segoe UI,Helvetica,Arial,sans-serif; fill: #e1e1e1; }
    .end-label { font: 700 12px -apple-system,BlinkMacSystemFont,Segoe UI,Helvetica,Arial,sans-serif; fill: #d6d6d6; }
    .legend { font: 500 14px -apple-system,BlinkMacSystemFont,Segoe UI,Helvetica,Arial,sans-serif; fill: #d6d6d6; }
  </style>
</defs>
<rect x="0" y="0" width="2400" height="2350" fill="#245f68"/><rect x="8" y="14" width="2384" height="2328" rx="18" fill="#ffffff" filter="url(#softShadow)"/><rect x="8" y="14" width="2384" height="170" rx="18" fill="url(#titleGrad)"/><rect x="8" y="190" width="2384" height="2152" fill="#343434"/><text x="1200.0" y="92" text-anchor="middle" class="title">Meomul ER Model II</text><text x="1200.0" y="130" text-anchor="middle" class="subtitle">Engagement, auth and personalization layer</text><text x="64" y="230" class="section">Page 2 · Engagement &amp; Personalization</text><path class="link" d="M1000,450.0 C830,450.0 970,318.0 800,318.0" marker-end="url(#arrow)"/><circle cx="900.0" cy="384.0" r="11" fill="#343434" stroke="#c8c8c8" stroke-width="2"/><text x="900.0" y="388.0" text-anchor="middle" class="rel-label">C</text><text x="1000" y="441.0" text-anchor="middle" class="end-label">1</text><text x="800" y="309.0" text-anchor="middle" class="end-label">N</text><path class="link" d="M1000,450.0 C830,450.0 970,608.0 800,608.0" marker-end="url(#arrow)"/><circle cx="900.0" cy="529.0" r="11" fill="#343434" stroke="#c8c8c8" stroke-width="2"/><text x="900.0" y="533.0" text-anchor="middle" class="rel-label">C</text><text x="1000" y="441.0" text-anchor="middle" class="end-label">1</text><text x="800" y="599.0" text-anchor="middle" class="end-label">N</text><path class="link-dashed" d="M480,318.0 C310,318.0 590,325.0 420,325.0"/><circle cx="450.0" cy="321.5" r="11" fill="#343434" stroke="#c8c8c8" stroke-width="2"/><text x="450.0" y="325.5" text-anchor="middle" class="rel-label">T</text><text x="480" y="309.0" text-anchor="middle" class="end-label">N</text><text x="420" y="316.0" text-anchor="middle" class="end-label">N*</text><path class="link-dashed" d="M480,608.0 C310,608.0 590,325.0 420,325.0"/><circle cx="450.0" cy="466.5" r="11" fill="#343434" stroke="#c8c8c8" stroke-width="2"/><text x="450.0" y="470.5" text-anchor="middle" class="rel-label">T</text><text x="480" y="599.0" text-anchor="middle" class="end-label">N</text><text x="420" y="316.0" text-anchor="middle" class="end-label">N*</text><path class="link" d="M1180.0,610 C1180.0,740 660.0,720 660.0,850" marker-end="url(#arrow)"/><circle cx="920.0" cy="730.0" r="11" fill="#343434" stroke="#c8c8c8" stroke-width="2"/><text x="920.0" y="734.0" text-anchor="middle" class="rel-label">O</text><text x="1180.0" y="601" text-anchor="middle" class="end-label">1</text><text x="660.0" y="841" text-anchor="middle" class="end-label">N</text><path class="link" d="M420,635.0 C590,635.0 310,997.0 480,997.0" marker-end="url(#arrow)"/><circle cx="450.0" cy="816.0" r="11" fill="#343434" stroke="#c8c8c8" stroke-width="2"/><text x="450.0" y="820.0" text-anchor="middle" class="rel-label">C</text><text x="420" y="626.0" text-anchor="middle" class="end-label">1</text><text x="480" y="988.0" text-anchor="middle" class="end-label">0..N</text><path class="link" d="M270.0,420 C270.0,550 660.0,720 660.0,850" marker-end="url(#arrow)"/><circle cx="465.0" cy="635.0" r="11" fill="#343434" stroke="#c8c8c8" stroke-width="2"/><text x="465.0" y="639.0" text-anchor="middle" class="rel-label">H</text><text x="270.0" y="411" text-anchor="middle" class="end-label">1</text><text x="660.0" y="841" text-anchor="middle" class="end-label">N</text><path class="link-dashed" d="M660.0,1144 C660.0,1274 660.0,1080 660.0,1210"/><circle cx="660.0" cy="1177.0" r="11" fill="#343434" stroke="#c8c8c8" stroke-width="2"/><text x="660.0" y="1181.0" text-anchor="middle" class="rel-label">C</text><text x="660.0" y="1135" text-anchor="middle" class="end-label">1</text><text x="660.0" y="1201" text-anchor="middle" class="end-label">N</text><path class="link" d="M1360,450.0 C1530,450.0 1390,354.0 1560,354.0" marker-end="url(#arrow)"/><circle cx="1460.0" cy="402.0" r="11" fill="#343434" stroke="#c8c8c8" stroke-width="2"/><text x="1460.0" y="406.0" text-anchor="middle" class="rel-label">R</text><text x="1360" y="441.0" text-anchor="middle" class="end-label">1</text><text x="1560" y="345.0" text-anchor="middle" class="end-label">N</text><path class="link" d="M1360,450.0 C1530,450.0 1390,615.0 1560,615.0" marker-end="url(#arrow)"/><circle cx="1460.0" cy="532.5" r="11" fill="#343434" stroke="#c8c8c8" stroke-width="2"/><text x="1460.0" y="536.5" text-anchor="middle" class="rel-label">F</text><text x="1360" y="441.0" text-anchor="middle" class="end-label">1</text><text x="1560" y="606.0" text-anchor="middle" class="end-label">N</text><path class="link-dashed" d="M1360,450.0 C1530,450.0 1730.0,840 1730.0,710"/><circle cx="1587.5" cy="612.5" r="11" fill="#343434" stroke="#c8c8c8" stroke-width="2"/><text x="1587.5" y="616.5" text-anchor="middle" class="rel-label">F</text><text x="1360" y="441.0" text-anchor="middle" class="end-label">1</text><text x="1730.0" y="701" text-anchor="middle" class="end-label">N</text><path class="link" d="M1360,450.0 C1530,450.0 1790,328.0 1960,328.0" marker-end="url(#arrow)"/><circle cx="1660.0" cy="389.0" r="11" fill="#343434" stroke="#c8c8c8" stroke-width="2"/><text x="1660.0" y="393.0" text-anchor="middle" class="rel-label">A</text><text x="1360" y="441.0" text-anchor="middle" class="end-label">1</text><text x="1960" y="319.0" text-anchor="middle" class="end-label">N</text><path class="link" d="M1180.0,610 C1180.0,740 1110.0,770 1110.0,900" marker-end="url(#arrow)"/><circle cx="1145.0" cy="755.0" r="11" fill="#343434" stroke="#c8c8c8" stroke-width="2"/><text x="1145.0" y="759.0" text-anchor="middle" class="rel-label">S</text><text x="1180.0" y="601" text-anchor="middle" class="end-label">1</text><text x="1110.0" y="891" text-anchor="middle" class="end-label">N</text><path class="link" d="M1180.0,610 C1180.0,740 1110.0,1090 1110.0,1220" marker-end="url(#arrow)"/><circle cx="1145.0" cy="915.0" r="11" fill="#343434" stroke="#c8c8c8" stroke-width="2"/><text x="1145.0" y="919.0" text-anchor="middle" class="rel-label">P</text><text x="1180.0" y="601" text-anchor="middle" class="end-label">1</text><text x="1110.0" y="1211" text-anchor="middle" class="end-label">1</text><path class="link-dashed" d="M1110.0,1220 C1110.0,1090 270.0,550 270.0,420"/><circle cx="690.0" cy="820.0" r="11" fill="#343434" stroke="#c8c8c8" stroke-width="2"/><text x="690.0" y="824.0" text-anchor="middle" class="rel-label">H</text><text x="1110.0" y="1211" text-anchor="middle" class="end-label">N*</text><text x="270.0" y="411" text-anchor="middle" class="end-label">N*</text><path class="link" d="M1180.0,610 C1180.0,740 1540.0,770 1540.0,900" marker-end="url(#arrow)"/><circle cx="1360.0" cy="755.0" r="11" fill="#343434" stroke="#c8c8c8" stroke-width="2"/><text x="1360.0" y="759.0" text-anchor="middle" class="rel-label">G</text><text x="1180.0" y="601" text-anchor="middle" class="end-label">1</text><text x="1540.0" y="891" text-anchor="middle" class="end-label">N</text><path class="link-dashed" d="M1290,1393.0 C1460,1393.0 1600,1088.0 1770,1088.0"/><circle cx="1530.0" cy="1240.5" r="11" fill="#343434" stroke="#c8c8c8" stroke-width="2"/><text x="1530.0" y="1244.5" text-anchor="middle" class="rel-label">F</text><text x="1290" y="1384.0" text-anchor="middle" class="end-label">1</text><text x="1770" y="1079.0" text-anchor="middle" class="end-label">N</text><path class="link-dashed" d="M1290,1060.0 C1460,1060.0 1600,1088.0 1770,1088.0"/><circle cx="1530.0" cy="1074.0" r="11" fill="#343434" stroke="#c8c8c8" stroke-width="2"/><text x="1530.0" y="1078.0" text-anchor="middle" class="rel-label">S</text><text x="1290" y="1051.0" text-anchor="middle" class="end-label">N</text><text x="1770" y="1079.0" text-anchor="middle" class="end-label">N</text><path class="link-dashed" d="M800,318.0 C970,318.0 1600,1088.0 1770,1088.0"/><circle cx="1285.0" cy="703.0" r="11" fill="#343434" stroke="#c8c8c8" stroke-width="2"/><text x="1285.0" y="707.0" text-anchor="middle" class="rel-label">S</text><text x="800" y="309.0" text-anchor="middle" class="end-label">N</text><text x="1770" y="1079.0" text-anchor="middle" class="end-label">N</text><path class="link-dashed" d="M800,608.0 C970,608.0 1600,1088.0 1770,1088.0"/><circle cx="1285.0" cy="848.0" r="11" fill="#343434" stroke="#c8c8c8" stroke-width="2"/><text x="1285.0" y="852.0" text-anchor="middle" class="rel-label">S</text><text x="800" y="599.0" text-anchor="middle" class="end-label">N</text><text x="1770" y="1079.0" text-anchor="middle" class="end-label">N</text><g filter="url(#shadow)"><rect x="1000" y="290" width="360" height="320" class="card"/><rect x="1000" y="290" width="360" height="36" fill="#f4b400"/><text x="1180.0" y="314" text-anchor="middle" class="box-title">members</text><g transform="translate(1016,334)"><rect x="0" y="0" width="10" height="10" rx="2" class="pk"/></g><text x="1032" y="344" class="field">_id</text><text x="1248" y="344" class="type">objectId</text><text x="1342" y="344" text-anchor="end" class="flag">PK</text><g transform="translate(1016,360)"><circle cx="5" cy="5" r="3.2" fill="#7a7a7a"/></g><text x="1032" y="370" class="field">memberType</text><text x="1248" y="370" class="type">enum</text><text x="1342" y="370" text-anchor="end" class="flag">NN</text><g transform="translate(1016,386)"><circle cx="5" cy="5" r="3.2" fill="#7a7a7a"/></g><text x="1032" y="396" class="field">memberStatus</text><text x="1248" y="396" class="type">enum</text><text x="1342" y="396" text-anchor="end" class="flag">NN</text><g transform="translate(1016,412)"><circle cx="5" cy="5" r="3.2" fill="#7a7a7a"/></g><text x="1032" y="422" class="field">memberPhone</text><text x="1248" y="422" class="type">string</text><text x="1342" y="422" text-anchor="end" class="flag">UK</text><g transform="translate(1016,438)"><circle cx="5" cy="5" r="3.2" fill="#7a7a7a"/></g><text x="1032" y="448" class="field">memberNick</text><text x="1248" y="448" class="type">string</text><text x="1342" y="448" text-anchor="end" class="flag">UK</text><g transform="translate(1016,464)"><circle cx="5" cy="5" r="3.2" fill="#7a7a7a"/></g><text x="1032" y="474" class="field">memberFollowers</text><text x="1248" y="474" class="type">int</text><text x="1342" y="474" text-anchor="end" class="flag"></text><g transform="translate(1016,490)"><circle cx="5" cy="5" r="3.2" fill="#7a7a7a"/></g><text x="1032" y="500" class="field">memberFollowings</text><text x="1248" y="500" class="type">int</text><text x="1342" y="500" text-anchor="end" class="flag"></text><g transform="translate(1016,516)"><circle cx="5" cy="5" r="3.2" fill="#7a7a7a"/></g><text x="1032" y="526" class="field">memberLikes</text><text x="1248" y="526" class="type">int</text><text x="1342" y="526" text-anchor="end" class="flag"></text><g transform="translate(1016,542)"><circle cx="5" cy="5" r="3.2" fill="#7a7a7a"/></g><text x="1032" y="552" class="field">memberViews</text><text x="1248" y="552" class="type">int</text><text x="1342" y="552" text-anchor="end" class="flag"></text></g><g filter="url(#shadow)"><rect x="120" y="230" width="300" height="190" class="card"/><rect x="120" y="230" width="300" height="36" fill="#76c442"/><text x="270.0" y="254" text-anchor="middle" class="box-title">hotels (context)</text><g transform="translate(136,274)"><rect x="0" y="0" width="10" height="10" rx="2" class="pk"/></g><text x="152" y="284" class="field">_id</text><text x="308" y="284" class="type">objectId</text><text x="402" y="284" text-anchor="end" class="flag">PK</text><g transform="translate(136,300)"><circle cx="5" cy="5" r="3.2" fill="#7a7a7a"/></g><text x="152" y="310" class="field">hotelTitle</text><text x="308" y="310" class="type">string</text><text x="402" y="310" text-anchor="end" class="flag">NN</text><g transform="translate(136,326)"><circle cx="5" cy="5" r="3.2" fill="#7a7a7a"/></g><text x="152" y="336" class="field">hotelStatus</text><text x="308" y="336" class="type">enum</text><text x="402" y="336" text-anchor="end" class="flag"></text><g transform="translate(136,352)"><circle cx="5" cy="5" r="3.2" fill="#7a7a7a"/></g><text x="152" y="362" class="field">hotelRank</text><text x="308" y="362" class="type">int</text><text x="402" y="362" text-anchor="end" class="flag"></text></g><g filter="url(#shadow)"><rect x="120" y="540" width="300" height="190" class="card"/><rect x="120" y="540" width="300" height="36" fill="#76c442"/><text x="270.0" y="564" text-anchor="middle" class="box-title">bookings (context)</text><g transform="translate(136,584)"><rect x="0" y="0" width="10" height="10" rx="2" class="pk"/></g><text x="152" y="594" class="field">_id</text><text x="308" y="594" class="type">objectId</text><text x="402" y="594" text-anchor="end" class="flag">PK</text><g transform="translate(136,610)"><rect x="0" y="0" width="10" height="10" rx="2" class="fk"/></g><text x="152" y="620" class="field">guestId</text><text x="308" y="620" class="type">objectId</text><text x="402" y="620" text-anchor="end" class="flag">FK</text><g transform="translate(136,636)"><rect x="0" y="0" width="10" height="10" rx="2" class="fk"/></g><text x="152" y="646" class="field">hotelId</text><text x="308" y="646" class="type">objectId</text><text x="402" y="646" text-anchor="end" class="flag">FK</text><g transform="translate(136,662)"><circle cx="5" cy="5" r="3.2" fill="#7a7a7a"/></g><text x="152" y="672" class="field">bookingStatus</text><text x="308" y="672" class="type">enum</text><text x="402" y="672" text-anchor="end" class="flag"></text></g><g filter="url(#shadow)"><rect x="480" y="210" width="320" height="216" class="card"/><rect x="480" y="210" width="320" height="36" fill="#10b5f5"/><text x="640.0" y="234" text-anchor="middle" class="box-title">likes</text><g transform="translate(496,254)"><rect x="0" y="0" width="10" height="10" rx="2" class="pk"/></g><text x="512" y="264" class="field">_id</text><text x="688" y="264" class="type">objectId</text><text x="782" y="264" text-anchor="end" class="flag">PK</text><g transform="translate(496,280)"><rect x="0" y="0" width="10" height="10" rx="2" class="fk"/></g><text x="512" y="290" class="field">memberId</text><text x="688" y="290" class="type">objectId</text><text x="782" y="290" text-anchor="end" class="flag">FK</text><g transform="translate(496,306)"><circle cx="5" cy="5" r="3.2" fill="#7a7a7a"/></g><text x="512" y="316" class="field">likeRefId</text><text x="688" y="316" class="type">objectId</text><text x="782" y="316" text-anchor="end" class="flag"></text><g transform="translate(496,332)"><circle cx="5" cy="5" r="3.2" fill="#7a7a7a"/></g><text x="512" y="342" class="field">likeGroup</text><text x="688" y="342" class="type">enum</text><text x="782" y="342" text-anchor="end" class="flag">NN</text><g transform="translate(496,358)"><circle cx="5" cy="5" r="3.2" fill="#7a7a7a"/></g><text x="512" y="368" class="field">createdAt</text><text x="688" y="368" class="type">date</text><text x="782" y="368" text-anchor="end" class="flag"></text></g><g filter="url(#shadow)"><rect x="480" y="500" width="320" height="216" class="card"/><rect x="480" y="500" width="320" height="36" fill="#10b5f5"/><text x="640.0" y="524" text-anchor="middle" class="box-title">views</text><g transform="translate(496,544)"><rect x="0" y="0" width="10" height="10" rx="2" class="pk"/></g><text x="512" y="554" class="field">_id</text><text x="688" y="554" class="type">objectId</text><text x="782" y="554" text-anchor="end" class="flag">PK</text><g transform="translate(496,570)"><rect x="0" y="0" width="10" height="10" rx="2" class="fk"/></g><text x="512" y="580" class="field">memberId</text><text x="688" y="580" class="type">objectId</text><text x="782" y="580" text-anchor="end" class="flag">FK</text><g transform="translate(496,596)"><circle cx="5" cy="5" r="3.2" fill="#7a7a7a"/></g><text x="512" y="606" class="field">viewRefId</text><text x="688" y="606" class="type">objectId</text><text x="782" y="606" text-anchor="end" class="flag"></text><g transform="translate(496,622)"><circle cx="5" cy="5" r="3.2" fill="#7a7a7a"/></g><text x="512" y="632" class="field">viewGroup</text><text x="688" y="632" class="type">enum</text><text x="782" y="632" text-anchor="end" class="flag">NN</text><g transform="translate(496,648)"><circle cx="5" cy="5" r="3.2" fill="#7a7a7a"/></g><text x="512" y="658" class="field">createdAt</text><text x="688" y="658" class="type">date</text><text x="782" y="658" text-anchor="end" class="flag"></text></g><g filter="url(#shadow)"><rect x="480" y="850" width="360" height="294" class="card"/><rect x="480" y="850" width="360" height="36" fill="#f4b400"/><text x="660.0" y="874" text-anchor="middle" class="box-title">chats</text><g transform="translate(496,894)"><rect x="0" y="0" width="10" height="10" rx="2" class="pk"/></g><text x="512" y="904" class="field">_id</text><text x="728" y="904" class="type">objectId</text><text x="822" y="904" text-anchor="end" class="flag">PK</text><g transform="translate(496,920)"><rect x="0" y="0" width="10" height="10" rx="2" class="fk"/></g><text x="512" y="930" class="field">guestId</text><text x="728" y="930" class="type">objectId</text><text x="822" y="930" text-anchor="end" class="flag">FK</text><g transform="translate(496,946)"><rect x="0" y="0" width="10" height="10" rx="2" class="fk"/></g><text x="512" y="956" class="field">hotelId</text><text x="728" y="956" class="type">objectId</text><text x="822" y="956" text-anchor="end" class="flag">FK</text><g transform="translate(496,972)"><rect x="0" y="0" width="10" height="10" rx="2" class="fk"/></g><text x="512" y="982" class="field">assignedAgentId</text><text x="728" y="982" class="type">objectId</text><text x="822" y="982" text-anchor="end" class="flag">FK</text><g transform="translate(496,998)"><rect x="0" y="0" width="10" height="10" rx="2" class="fk"/></g><text x="512" y="1008" class="field">bookingId</text><text x="728" y="1008" class="type">objectId</text><text x="822" y="1008" text-anchor="end" class="flag">FK</text><g transform="translate(496,1024)"><circle cx="5" cy="5" r="3.2" fill="#7a7a7a"/></g><text x="512" y="1034" class="field">chatScope</text><text x="728" y="1034" class="type">enum</text><text x="822" y="1034" text-anchor="end" class="flag">NN</text><g transform="translate(496,1050)"><circle cx="5" cy="5" r="3.2" fill="#7a7a7a"/></g><text x="512" y="1060" class="field">chatStatus</text><text x="728" y="1060" class="type">enum</text><text x="822" y="1060" text-anchor="end" class="flag">NN</text><g transform="translate(496,1076)"><circle cx="5" cy="5" r="3.2" fill="#7a7a7a"/></g><text x="512" y="1086" class="field">lastMessageAt</text><text x="728" y="1086" class="type">date</text><text x="822" y="1086" text-anchor="end" class="flag"></text></g><g filter="url(#shadow)"><rect x="480" y="1210" width="360" height="294" class="card"/><rect x="480" y="1210" width="360" height="36" fill="#8a8a8a"/><text x="660.0" y="1234" text-anchor="middle" class="box-title">chat_messages (embedded)</text><g transform="translate(496,1254)"><circle cx="5" cy="5" r="4.2" class="emb"/></g><text x="512" y="1264" class="field">senderId</text><text x="728" y="1264" class="type">objectId</text><text x="822" y="1264" text-anchor="end" class="flag"></text><g transform="translate(496,1280)"><circle cx="5" cy="5" r="4.2" class="emb"/></g><text x="512" y="1290" class="field">senderType</text><text x="728" y="1290" class="type">enum</text><text x="822" y="1290" text-anchor="end" class="flag">NN</text><g transform="translate(496,1306)"><circle cx="5" cy="5" r="4.2" class="emb"/></g><text x="512" y="1316" class="field">messageType</text><text x="728" y="1316" class="type">enum</text><text x="822" y="1316" text-anchor="end" class="flag"></text><g transform="translate(496,1332)"><circle cx="5" cy="5" r="4.2" class="emb"/></g><text x="512" y="1342" class="field">content</text><text x="728" y="1342" class="type">string</text><text x="822" y="1342" text-anchor="end" class="flag"></text><g transform="translate(496,1358)"><circle cx="5" cy="5" r="4.2" class="emb"/></g><text x="512" y="1368" class="field">imageUrl</text><text x="728" y="1368" class="type">string</text><text x="822" y="1368" text-anchor="end" class="flag"></text><g transform="translate(496,1384)"><circle cx="5" cy="5" r="4.2" class="emb"/></g><text x="512" y="1394" class="field">fileUrl</text><text x="728" y="1394" class="type">string</text><text x="822" y="1394" text-anchor="end" class="flag"></text><g transform="translate(496,1410)"><circle cx="5" cy="5" r="4.2" class="emb"/></g><text x="512" y="1420" class="field">readByMemberIds[]</text><text x="728" y="1420" class="type">array</text><text x="822" y="1420" text-anchor="end" class="flag"></text><g transform="translate(496,1436)"><circle cx="5" cy="5" r="4.2" class="emb"/></g><text x="512" y="1446" class="field">timestamp</text><text x="728" y="1446" class="type">date</text><text x="822" y="1446" text-anchor="end" class="flag"></text></g><g filter="url(#shadow)"><rect x="1560" y="220" width="340" height="268" class="card"/><rect x="1560" y="220" width="340" height="36" fill="#8a8a8a"/><text x="1730.0" y="244" text-anchor="middle" class="box-title">notifications</text><g transform="translate(1576,264)"><rect x="0" y="0" width="10" height="10" rx="2" class="pk"/></g><text x="1592" y="274" class="field">_id</text><text x="1788" y="274" class="type">objectId</text><text x="1882" y="274" text-anchor="end" class="flag">PK</text><g transform="translate(1576,290)"><rect x="0" y="0" width="10" height="10" rx="2" class="fk"/></g><text x="1592" y="300" class="field">userId</text><text x="1788" y="300" class="type">objectId</text><text x="1882" y="300" text-anchor="end" class="flag">FK</text><g transform="translate(1576,316)"><circle cx="5" cy="5" r="3.2" fill="#7a7a7a"/></g><text x="1592" y="326" class="field">type</text><text x="1788" y="326" class="type">enum</text><text x="1882" y="326" text-anchor="end" class="flag">NN</text><g transform="translate(1576,342)"><circle cx="5" cy="5" r="3.2" fill="#7a7a7a"/></g><text x="1592" y="352" class="field">title</text><text x="1788" y="352" class="type">string</text><text x="1882" y="352" text-anchor="end" class="flag">NN</text><g transform="translate(1576,368)"><circle cx="5" cy="5" r="3.2" fill="#7a7a7a"/></g><text x="1592" y="378" class="field">read</text><text x="1788" y="378" class="type">bool</text><text x="1882" y="378" text-anchor="end" class="flag"></text><g transform="translate(1576,394)"><circle cx="5" cy="5" r="3.2" fill="#7a7a7a"/></g><text x="1592" y="404" class="field">link</text><text x="1788" y="404" class="type">string</text><text x="1882" y="404" text-anchor="end" class="flag"></text><g transform="translate(1576,420)"><circle cx="5" cy="5" r="3.2" fill="#7a7a7a"/></g><text x="1592" y="430" class="field">createdAt</text><text x="1788" y="430" class="type">date</text><text x="1882" y="430" text-anchor="end" class="flag"></text></g><g filter="url(#shadow)"><rect x="1560" y="520" width="340" height="190" class="card"/><rect x="1560" y="520" width="340" height="36" fill="#ff4747"/><text x="1730.0" y="544" text-anchor="middle" class="box-title">follows</text><g transform="translate(1576,564)"><rect x="0" y="0" width="10" height="10" rx="2" class="pk"/></g><text x="1592" y="574" class="field">_id</text><text x="1788" y="574" class="type">objectId</text><text x="1882" y="574" text-anchor="end" class="flag">PK</text><g transform="translate(1576,590)"><rect x="0" y="0" width="10" height="10" rx="2" class="fk"/></g><text x="1592" y="600" class="field">followerId</text><text x="1788" y="600" class="type">objectId</text><text x="1882" y="600" text-anchor="end" class="flag">FK</text><g transform="translate(1576,616)"><rect x="0" y="0" width="10" height="10" rx="2" class="fk"/></g><text x="1592" y="626" class="field">followingId</text><text x="1788" y="626" class="type">objectId</text><text x="1882" y="626" text-anchor="end" class="flag">FK</text><g transform="translate(1576,642)"><circle cx="5" cy="5" r="3.2" fill="#7a7a7a"/></g><text x="1592" y="652" class="field">createdAt</text><text x="1788" y="652" class="type">date</text><text x="1882" y="652" text-anchor="end" class="flag"></text></g><g filter="url(#shadow)"><rect x="1960" y="220" width="320" height="216" class="card"/><rect x="1960" y="220" width="320" height="36" fill="#8a8a8a"/><text x="2120.0" y="244" text-anchor="middle" class="box-title">refresh_tokens</text><g transform="translate(1976,264)"><rect x="0" y="0" width="10" height="10" rx="2" class="pk"/></g><text x="1992" y="274" class="field">_id</text><text x="2168" y="274" class="type">objectId</text><text x="2262" y="274" text-anchor="end" class="flag">PK</text><g transform="translate(1976,290)"><rect x="0" y="0" width="10" height="10" rx="2" class="fk"/></g><text x="1992" y="300" class="field">memberId</text><text x="2168" y="300" class="type">objectId</text><text x="2262" y="300" text-anchor="end" class="flag">FK</text><g transform="translate(1976,316)"><circle cx="5" cy="5" r="3.2" fill="#7a7a7a"/></g><text x="1992" y="326" class="field">tokenHash</text><text x="2168" y="326" class="type">string</text><text x="2262" y="326" text-anchor="end" class="flag">UK</text><g transform="translate(1976,342)"><circle cx="5" cy="5" r="3.2" fill="#7a7a7a"/></g><text x="1992" y="352" class="field">expiresAt</text><text x="2168" y="352" class="type">date</text><text x="2262" y="352" text-anchor="end" class="flag">NN</text><g transform="translate(1976,368)"><circle cx="5" cy="5" r="3.2" fill="#7a7a7a"/></g><text x="1992" y="378" class="field">revoked</text><text x="2168" y="378" class="type">bool</text><text x="2262" y="378" text-anchor="end" class="flag"></text></g><g filter="url(#shadow)"><rect x="930" y="900" width="360" height="320" class="card"/><rect x="930" y="900" width="360" height="36" fill="#10b5f5"/><text x="1110.0" y="924" text-anchor="middle" class="box-title">search_history</text><g transform="translate(946,944)"><rect x="0" y="0" width="10" height="10" rx="2" class="pk"/></g><text x="962" y="954" class="field">_id</text><text x="1178" y="954" class="type">objectId</text><text x="1272" y="954" text-anchor="end" class="flag">PK</text><g transform="translate(946,970)"><rect x="0" y="0" width="10" height="10" rx="2" class="fk"/></g><text x="962" y="980" class="field">memberId</text><text x="1178" y="980" class="type">objectId</text><text x="1272" y="980" text-anchor="end" class="flag">FK</text><g transform="translate(946,996)"><circle cx="5" cy="5" r="3.2" fill="#7a7a7a"/></g><text x="962" y="1006" class="field">location</text><text x="1178" y="1006" class="type">enum</text><text x="1272" y="1006" text-anchor="end" class="flag"></text><g transform="translate(946,1022)"><circle cx="5" cy="5" r="4.2" class="emb"/></g><text x="962" y="1032" class="field">hotelTypes[]</text><text x="1178" y="1032" class="type">array</text><text x="1272" y="1032" text-anchor="end" class="flag"></text><g transform="translate(946,1048)"><circle cx="5" cy="5" r="3.2" fill="#7a7a7a"/></g><text x="962" y="1058" class="field">purpose</text><text x="1178" y="1058" class="type">enum</text><text x="1272" y="1058" text-anchor="end" class="flag"></text><g transform="translate(946,1074)"><circle cx="5" cy="5" r="4.2" class="emb"/></g><text x="962" y="1084" class="field">amenities[]</text><text x="1178" y="1084" class="type">array</text><text x="1272" y="1084" text-anchor="end" class="flag"></text><g transform="translate(946,1100)"><circle cx="5" cy="5" r="4.2" class="emb"/></g><text x="962" y="1110" class="field">starRatings[]</text><text x="1178" y="1110" class="type">array</text><text x="1272" y="1110" text-anchor="end" class="flag"></text><g transform="translate(946,1126)"><circle cx="5" cy="5" r="3.2" fill="#7a7a7a"/></g><text x="962" y="1136" class="field">guestCount</text><text x="1178" y="1136" class="type">int</text><text x="1272" y="1136" text-anchor="end" class="flag"></text><g transform="translate(946,1152)"><circle cx="5" cy="5" r="3.2" fill="#7a7a7a"/></g><text x="962" y="1162" class="field">fingerprint</text><text x="1178" y="1162" class="type">string</text><text x="1272" y="1162" text-anchor="end" class="flag"></text></g><g filter="url(#shadow)"><rect x="930" y="1220" width="360" height="346" class="card"/><rect x="930" y="1220" width="360" height="36" fill="#f4b400"/><text x="1110.0" y="1244" text-anchor="middle" class="box-title">user_profile</text><g transform="translate(946,1264)"><rect x="0" y="0" width="10" height="10" rx="2" class="pk"/></g><text x="962" y="1274" class="field">_id</text><text x="1178" y="1274" class="type">objectId</text><text x="1272" y="1274" text-anchor="end" class="flag">PK</text><g transform="translate(946,1290)"><rect x="0" y="0" width="10" height="10" rx="2" class="fk"/></g><text x="962" y="1300" class="field">memberId</text><text x="1178" y="1300" class="type">objectId</text><text x="1272" y="1300" text-anchor="end" class="flag">FK</text><g transform="translate(946,1316)"><circle cx="5" cy="5" r="4.2" class="emb"/></g><text x="962" y="1326" class="field">preferredLocations[]</text><text x="1178" y="1326" class="type">array</text><text x="1272" y="1326" text-anchor="end" class="flag"></text><g transform="translate(946,1342)"><circle cx="5" cy="5" r="4.2" class="emb"/></g><text x="962" y="1352" class="field">preferredTypes[]</text><text x="1178" y="1352" class="type">array</text><text x="1272" y="1352" text-anchor="end" class="flag"></text><g transform="translate(946,1368)"><circle cx="5" cy="5" r="4.2" class="emb"/></g><text x="962" y="1378" class="field">preferredAmenities[]</text><text x="1178" y="1378" class="type">array</text><text x="1272" y="1378" text-anchor="end" class="flag"></text><g transform="translate(946,1394)"><circle cx="5" cy="5" r="4.2" class="emb"/></g><text x="962" y="1404" class="field">viewedHotelIds[]</text><text x="1178" y="1404" class="type">array</text><text x="1272" y="1404" text-anchor="end" class="flag"></text><g transform="translate(946,1420)"><circle cx="5" cy="5" r="4.2" class="emb"/></g><text x="962" y="1430" class="field">likedHotelIds[]</text><text x="1178" y="1430" class="type">array</text><text x="1272" y="1430" text-anchor="end" class="flag"></text><g transform="translate(946,1446)"><circle cx="5" cy="5" r="4.2" class="emb"/></g><text x="962" y="1456" class="field">bookedHotelIds[]</text><text x="1178" y="1456" class="type">array</text><text x="1272" y="1456" text-anchor="end" class="flag"></text><g transform="translate(946,1472)"><circle cx="5" cy="5" r="3.2" fill="#7a7a7a"/></g><text x="962" y="1482" class="field">source</text><text x="1178" y="1482" class="type">enum</text><text x="1272" y="1482" text-anchor="end" class="flag"></text><g transform="translate(946,1498)"><circle cx="5" cy="5" r="3.2" fill="#7a7a7a"/></g><text x="962" y="1508" class="field">computedAt</text><text x="1178" y="1508" class="type">date</text><text x="1272" y="1508" text-anchor="end" class="flag"></text></g><g filter="url(#shadow)"><rect x="1360" y="900" width="360" height="268" class="card"/><rect x="1360" y="900" width="360" height="36" fill="#10b5f5"/><text x="1540.0" y="924" text-anchor="middle" class="box-title">analytics_events</text><g transform="translate(1376,944)"><rect x="0" y="0" width="10" height="10" rx="2" class="pk"/></g><text x="1392" y="954" class="field">_id</text><text x="1608" y="954" class="type">objectId</text><text x="1702" y="954" text-anchor="end" class="flag">PK</text><g transform="translate(1376,970)"><rect x="0" y="0" width="10" height="10" rx="2" class="fk"/></g><text x="1392" y="980" class="field">memberId</text><text x="1608" y="980" class="type">objectId</text><text x="1702" y="980" text-anchor="end" class="flag">FK</text><g transform="translate(1376,996)"><circle cx="5" cy="5" r="3.2" fill="#7a7a7a"/></g><text x="1392" y="1006" class="field">memberType</text><text x="1608" y="1006" class="type">enum</text><text x="1702" y="1006" text-anchor="end" class="flag">NN</text><g transform="translate(1376,1022)"><circle cx="5" cy="5" r="3.2" fill="#7a7a7a"/></g><text x="1392" y="1032" class="field">eventName</text><text x="1608" y="1032" class="type">string</text><text x="1702" y="1032" text-anchor="end" class="flag">NN</text><g transform="translate(1376,1048)"><circle cx="5" cy="5" r="3.2" fill="#7a7a7a"/></g><text x="1392" y="1058" class="field">eventPath</text><text x="1608" y="1058" class="type">string</text><text x="1702" y="1058" text-anchor="end" class="flag"></text><g transform="translate(1376,1074)"><circle cx="5" cy="5" r="3.2" fill="#7a7a7a"/></g><text x="1392" y="1084" class="field">source</text><text x="1608" y="1084" class="type">string</text><text x="1702" y="1084" text-anchor="end" class="flag"></text><g transform="translate(1376,1100)"><circle cx="5" cy="5" r="3.2" fill="#7a7a7a"/></g><text x="1392" y="1110" class="field">createdAt</text><text x="1608" y="1110" class="type">date</text><text x="1702" y="1110" text-anchor="end" class="flag"></text></g><g filter="url(#shadow)"><rect x="1770" y="980" width="420" height="216" class="card"/><rect x="1770" y="980" width="420" height="36" fill="#8a8a8a"/><text x="1980.0" y="1004" text-anchor="middle" class="box-title">recommendation_cache</text><g transform="translate(1786,1024)"><rect x="0" y="0" width="10" height="10" rx="2" class="pk"/></g><text x="1802" y="1034" class="field">_id</text><text x="2078" y="1034" class="type">objectId</text><text x="2172" y="1034" text-anchor="end" class="flag">PK</text><g transform="translate(1786,1050)"><circle cx="5" cy="5" r="3.2" fill="#7a7a7a"/></g><text x="1802" y="1060" class="field">cacheKey</text><text x="2078" y="1060" class="type">string</text><text x="2172" y="1060" text-anchor="end" class="flag">UK</text><g transform="translate(1786,1076)"><circle cx="5" cy="5" r="3.2" fill="#7a7a7a"/></g><text x="1802" y="1086" class="field">data</text><text x="2078" y="1086" class="type">mixed</text><text x="2172" y="1086" text-anchor="end" class="flag">NN</text><g transform="translate(1786,1102)"><circle cx="5" cy="5" r="3.2" fill="#7a7a7a"/></g><text x="1802" y="1112" class="field">computedAt</text><text x="2078" y="1112" class="type">date</text><text x="2172" y="1112" text-anchor="end" class="flag">NN</text><g transform="translate(1786,1128)"><circle cx="5" cy="5" r="3.2" fill="#7a7a7a"/></g><text x="1802" y="1138" class="field">expiresAt</text><text x="2078" y="1138" class="type">date</text><text x="2172" y="1138" text-anchor="end" class="flag">NN</text></g><text x="64" y="2260" class="legend">Legend:</text><rect x="130" y="2248" width="10" height="10" rx="2" class="pk"/><text x="150" y="2260" class="legend">PK</text><rect x="205" y="2248" width="10" height="10" rx="2" class="fk"/><text x="225" y="2260" class="legend">FK</text><circle cx="315" cy="2253" r="4.2" class="emb"/><text x="330" y="2260" class="legend">embedded / value object</text><path d="M560,2253 C610,2253 640,2253 690,2253" class="link-dashed"/><text x="710" y="2260" class="legend">derived or polymorphic relation</text><text x="64" y="2298" class="legend">• Engagement/auth layer: realtime chat, notifications, follows, behavior signals, recommendation inputs</text><text x="624" y="2298" class="legend">• N* marks polymorphic or array-based references, mostly targeting Hotel entities</text><text x="1184" y="2298" class="legend">• Gray cards are embedded docs or cache/auth infrastructure records</text></svg>