<svg xmlns="http://www.w3.org/2000/svg" width="2500" height="1820" viewBox="0 0 2500 1820">
<defs>
  <filter id="shadow" x="-20%" y="-20%" width="140%" height="140%">
    <feDropShadow dx="0" dy="10" stdDeviation="12" flood-color="#000000" flood-opacity="0.28"/>
  </filter>
  <marker id="arrow" markerWidth="12" markerHeight="12" refX="10" refY="6" orient="auto">
    <path d="M0,0 L12,6 L0,12 z" fill="#c9c9c9"/>
  </marker>
  <style>
    .box-title { font: 700 21px -apple-system,BlinkMacSystemFont,Segoe UI,Helvetica,Arial,sans-serif; fill: #ffffff; }
    .field { font: 500 14px ui-monospace,SFMono-Regular,Menlo,Consolas,monospace; fill: #efefef; }
    .type { font: italic 600 13px ui-monospace,SFMono-Regular,Menlo,Consolas,monospace; fill: #b9b9b9; }
    .flag { font: 700 12px ui-monospace,SFMono-Regular,Menlo,Consolas,monospace; fill: #cfcfcf; }
    .link { stroke: #cbcbcb; stroke-width: 2.5; fill: none; opacity: .95; }
    .link-dashed { stroke: #b7b7b7; stroke-width: 2.2; fill: none; opacity: .9; stroke-dasharray: 8 7; }
    .card { fill: #3a3a3a; }
    .pk { fill: #ffd200; }
    .fk { fill: none; stroke: #d8a543; stroke-width: 1.8; }
    .emb { fill: #58c1f7; }
    .rel-label { font: 600 13px -apple-system,BlinkMacSystemFont,Segoe UI,Helvetica,Arial,sans-serif; fill: #e1e1e1; }
    .end-label { font: 700 12px -apple-system,BlinkMacSystemFont,Segoe UI,Helvetica,Arial,sans-serif; fill: #d6d6d6; }
  </style>
</defs>
<rect x="0" y="0" width="2500" height="1820" fill="#245f68"/><rect x="0" y="0" width="2500" height="1820" fill="#343434"/><path class="link" d="M930,355.0 C753.6,355.0 686.4,253.0 510,253.0" marker-end="url(#arrow)"/><circle cx="720.0" cy="304.0" r="11" fill="#343434" stroke="#c8c8c8" stroke-width="2"/><text x="720.0" y="308.0" text-anchor="middle" class="rel-label">A</text><text x="930" y="346.0" text-anchor="middle" class="end-label">1</text><text x="510" y="244.0" text-anchor="middle" class="end-label">N</text><path class="link-dashed" d="M930,355.0 C665.4000000000001,355.0 300.0,529.4 300.0,416"/><circle cx="548.85" cy="413.85" r="11" fill="#343434" stroke="#c8c8c8" stroke-width="2"/><text x="548.85" y="417.85" text-anchor="middle" class="rel-label">R</text><text x="930" y="346.0" text-anchor="middle" class="end-label">1</text><text x="300.0" y="407" text-anchor="middle" class="end-label">0..N</text><path class="link" d="M930,355.0 C720.0,355.0 640.0,1041.0 430,1041.0" marker-end="url(#arrow)"/><circle cx="680.0" cy="698.0" r="11" fill="#343434" stroke="#c8c8c8" stroke-width="2"/><text x="680.0" y="702.0" text-anchor="middle" class="rel-label">F</text><text x="930" y="346.0" text-anchor="middle" class="end-label">1</text><text x="430" y="1032.0" text-anchor="middle" class="end-label">N</text><path class="link-dashed" d="M1140.0,590 C1140.0,779.42 710,1041.0 430,1041.0"/><circle cx="855.0" cy="862.855" r="11" fill="#343434" stroke="#c8c8c8" stroke-width="2"/><text x="855.0" y="866.855" text-anchor="middle" class="rel-label">F</text><text x="1140.0" y="581" text-anchor="middle" class="end-label">1</text><text x="430" y="1032.0" text-anchor="middle" class="end-label">N</text><path class="link" d="M930,355.0 C720.0,355.0 640.0,533.0 430,533.0" marker-end="url(#arrow)"/><circle cx="680.0" cy="444.0" r="11" fill="#343434" stroke="#c8c8c8" stroke-width="2"/><text x="680.0" y="448.0" text-anchor="middle" class="rel-label">L</text><text x="930" y="346.0" text-anchor="middle" class="end-label">1</text><text x="430" y="524.0" text-anchor="middle" class="end-label">N</text><path class="link" d="M930,355.0 C720.0,355.0 640.0,793.0 430,793.0" marker-end="url(#arrow)"/><circle cx="680.0" cy="574.0" r="11" fill="#343434" stroke="#c8c8c8" stroke-width="2"/><text x="680.0" y="578.0" text-anchor="middle" class="rel-label">V</text><text x="930" y="346.0" text-anchor="middle" class="end-label">1</text><text x="430" y="784.0" text-anchor="middle" class="end-label">N</text><path class="link-dashed" d="M430,533.0 C661.0,533.0 749.0,903.0 980,903.0"/><circle cx="705.0" cy="718.0" r="11" fill="#343434" stroke="#c8c8c8" stroke-width="2"/><text x="705.0" y="722.0" text-anchor="middle" class="rel-label">T</text><text x="430" y="524.0" text-anchor="middle" class="end-label">N*</text><text x="980" y="894.0" text-anchor="middle" class="end-label">N*</text><path class="link-dashed" d="M430,793.0 C661.0,793.0 749.0,903.0 980,903.0"/><circle cx="705.0" cy="848.0" r="11" fill="#343434" stroke="#c8c8c8" stroke-width="2"/><text x="705.0" y="852.0" text-anchor="middle" class="rel-label">T</text><text x="430" y="784.0" text-anchor="middle" class="end-label">N*</text><text x="980" y="894.0" text-anchor="middle" class="end-label">N*</text><path class="link" d="M1140.0,590 C1140.0,830 680.0,1000 680.0,1240" marker-end="url(#arrow)"/><circle cx="910.0" cy="915.0" r="11" fill="#343434" stroke="#c8c8c8" stroke-width="2"/><text x="910.0" y="919.0" text-anchor="middle" class="rel-label">S</text><text x="1140.0" y="581" text-anchor="middle" class="end-label">1</text><text x="680.0" y="1231" text-anchor="middle" class="end-label">N</text><path class="link" d="M1140.0,590 C1140.0,660 1210.0,550 1210.0,620" marker-end="url(#arrow)"/><circle cx="1175.0" cy="605.0" r="11" fill="#343434" stroke="#c8c8c8" stroke-width="2"/><text x="1175.0" y="609.0" text-anchor="middle" class="rel-label">O</text><text x="1140.0" y="581" text-anchor="middle" class="end-label">1</text><text x="1210.0" y="611" text-anchor="middle" class="end-label">N</text><path class="link" d="M1210.0,1186 C1210.0,1256 1210.0,1175 1210.0,1245" marker-end="url(#arrow)"/><circle cx="1210.0" cy="1215.5" r="11" fill="#343434" stroke="#c8c8c8" stroke-width="2"/><text x="1210.0" y="1219.5" text-anchor="middle" class="rel-label">R</text><text x="1210.0" y="1177" text-anchor="middle" class="end-label">1</text><text x="1210.0" y="1236" text-anchor="middle" class="end-label">N</text><path class="link" d="M1350,355.0 C1557.36,355.0 1602.64,1507.0 1810,1507.0" marker-end="url(#arrow)"/><circle cx="1580.0" cy="931.0" r="11" fill="#343434" stroke="#c8c8c8" stroke-width="2"/><text x="1580.0" y="935.0" text-anchor="middle" class="rel-label">G</text><text x="1350" y="346.0" text-anchor="middle" class="end-label">1</text><text x="1810" y="1498.0" text-anchor="middle" class="end-label">N</text><path class="link" d="M1440,903.0 C1595.4,903.0 1654.6,1507.0 1810,1507.0" marker-end="url(#arrow)"/><circle cx="1625.0" cy="1205.0" r="11" fill="#343434" stroke="#c8c8c8" stroke-width="2"/><text x="1625.0" y="1209.0" text-anchor="middle" class="rel-label">H</text><text x="1440" y="894.0" text-anchor="middle" class="end-label">1</text><text x="1810" y="1498.0" text-anchor="middle" class="end-label">N</text><path class="link" d="M1350,355.0 C1543.2,355.0 1616.8,379.0 1810,379.0" marker-end="url(#arrow)"/><circle cx="1580.0" cy="367.0" r="11" fill="#343434" stroke="#c8c8c8" stroke-width="2"/><text x="1580.0" y="371.0" text-anchor="middle" class="rel-label">R</text><text x="1350" y="346.0" text-anchor="middle" class="end-label">1</text><text x="1810" y="370.0" text-anchor="middle" class="end-label">N</text><path class="link" d="M1440,903.0 C1595.4,903.0 1654.6,379.0 1810,379.0" marker-end="url(#arrow)"/><circle cx="1625.0" cy="641.0" r="11" fill="#343434" stroke="#c8c8c8" stroke-width="2"/><text x="1625.0" y="645.0" text-anchor="middle" class="rel-label">H</text><text x="1440" y="894.0" text-anchor="middle" class="end-label">1</text><text x="1810" y="370.0" text-anchor="middle" class="end-label">N</text><path class="link" d="M2060.0,1260 C2060.0,1020 2020.0,818 2020.0,578" marker-end="url(#arrow)"/><circle cx="2040.0" cy="919.0" r="11" fill="#343434" stroke="#c8c8c8" stroke-width="2"/><text x="2040.0" y="923.0" text-anchor="middle" class="rel-label">R</text><text x="2060.0" y="1251" text-anchor="middle" class="end-label">1</text><text x="2020.0" y="569" text-anchor="middle" class="end-label">0..1</text><path class="link" d="M1350,355.0 C1543.2,355.0 1616.8,899.0 1810,899.0" marker-end="url(#arrow)"/><circle cx="1580.0" cy="627.0" r="11" fill="#343434" stroke="#c8c8c8" stroke-width="2"/><text x="1580.0" y="631.0" text-anchor="middle" class="rel-label">G</text><text x="1350" y="346.0" text-anchor="middle" class="end-label">1</text><text x="1810" y="890.0" text-anchor="middle" class="end-label">N</text><path class="link-dashed" d="M1350,355.0 C1630,355.0 2060.0,555.1 2060.0,700"/><circle cx="1775.0" cy="491.275" r="11" fill="#343434" stroke="#c8c8c8" stroke-width="2"/><text x="1775.0" y="495.275" text-anchor="middle" class="rel-label">A</text><text x="1350" y="346.0" text-anchor="middle" class="end-label">1</text><text x="2060.0" y="691" text-anchor="middle" class="end-label">0..N</text><path class="link" d="M1440,903.0 C1595.4,903.0 1654.6,899.0 1810,899.0" marker-end="url(#arrow)"/><circle cx="1625.0" cy="901.0" r="11" fill="#343434" stroke="#c8c8c8" stroke-width="2"/><text x="1625.0" y="905.0" text-anchor="middle" class="rel-label">H</text><text x="1440" y="894.0" text-anchor="middle" class="end-label">1</text><text x="1810" y="890.0" text-anchor="middle" class="end-label">N</text><path class="link" d="M2060.0,1260 C2060.0,1190 2060.0,1168 2060.0,1098" marker-end="url(#arrow)"/><circle cx="2060.0" cy="1179.0" r="11" fill="#343434" stroke="#c8c8c8" stroke-width="2"/><text x="2060.0" y="1183.0" text-anchor="middle" class="rel-label">C</text><text x="2060.0" y="1251" text-anchor="middle" class="end-label">1</text><text x="2060.0" y="1089" text-anchor="middle" class="end-label">0..N</text><g filter="url(#shadow)"><rect x="930" y="120" width="420" height="470" class="card"/><rect x="930" y="120" width="420" height="36" fill="#f4b400"/><text x="1140.0" y="144" text-anchor="middle" class="box-title">members</text><g transform="translate(946,162)"><rect x="0" y="0" width="10" height="10" rx="2" class="pk"/></g><text x="962" y="172" class="field">_id</text><text x="1238" y="172" class="type">objectId</text><text x="1332" y="172" text-anchor="end" class="flag">PK</text><g transform="translate(946,186)"><circle cx="5" cy="5" r="3.2" fill="#7a7a7a"/></g><text x="962" y="196" class="field">memberType</text><text x="1238" y="196" class="type">enum</text><text x="1332" y="196" text-anchor="end" class="flag">NN</text><g transform="translate(946,210)"><circle cx="5" cy="5" r="3.2" fill="#7a7a7a"/></g><text x="962" y="220" class="field">memberStatus</text><text x="1238" y="220" class="type">enum</text><text x="1332" y="220" text-anchor="end" class="flag">NN</text><g transform="translate(946,234)"><circle cx="5" cy="5" r="3.2" fill="#7a7a7a"/></g><text x="962" y="244" class="field">hostAccessStatus</text><text x="1238" y="244" class="type">enum</text><text x="1332" y="244" text-anchor="end" class="flag">NN</text><g transform="translate(946,258)"><circle cx="5" cy="5" r="3.2" fill="#7a7a7a"/></g><text x="962" y="268" class="field">memberAuthType</text><text x="1238" y="268" class="type">enum</text><text x="1332" y="268" text-anchor="end" class="flag">NN</text><g transform="translate(946,282)"><circle cx="5" cy="5" r="3.2" fill="#7a7a7a"/></g><text x="962" y="292" class="field">memberPhone</text><text x="1238" y="292" class="type">string</text><text x="1332" y="292" text-anchor="end" class="flag">UK</text><g transform="translate(946,306)"><circle cx="5" cy="5" r="3.2" fill="#7a7a7a"/></g><text x="962" y="316" class="field">memberNick</text><text x="1238" y="316" class="type">string</text><text x="1332" y="316" text-anchor="end" class="flag">UK</text><g transform="translate(946,330)"><circle cx="5" cy="5" r="3.2" fill="#7a7a7a"/></g><text x="962" y="340" class="field">subscriptionTier</text><text x="1238" y="340" class="type">enum</text><text x="1332" y="340" text-anchor="end" class="flag"></text><g transform="translate(946,354)"><circle cx="5" cy="5" r="3.2" fill="#7a7a7a"/></g><text x="962" y="364" class="field">memberPoints</text><text x="1238" y="364" class="type">number</text><text x="1332" y="364" text-anchor="end" class="flag"></text><g transform="translate(946,378)"><circle cx="5" cy="5" r="3.2" fill="#7a7a7a"/></g><text x="962" y="388" class="field">memberFollowers</text><text x="1238" y="388" class="type">number</text><text x="1332" y="388" text-anchor="end" class="flag"></text><g transform="translate(946,402)"><circle cx="5" cy="5" r="3.2" fill="#7a7a7a"/></g><text x="962" y="412" class="field">memberFollowings</text><text x="1238" y="412" class="type">number</text><text x="1332" y="412" text-anchor="end" class="flag"></text><g transform="translate(946,426)"><circle cx="5" cy="5" r="3.2" fill="#7a7a7a"/></g><text x="962" y="436" class="field">memberViews</text><text x="1238" y="436" class="type">number</text><text x="1332" y="436" text-anchor="end" class="flag"></text><g transform="translate(946,450)"><circle cx="5" cy="5" r="3.2" fill="#7a7a7a"/></g><text x="962" y="460" class="field">memberLikes</text><text x="1238" y="460" class="type">number</text><text x="1332" y="460" text-anchor="end" class="flag"></text><g transform="translate(946,474)"><circle cx="5" cy="5" r="3.2" fill="#7a7a7a"/></g><text x="962" y="484" class="field">memberRank</text><text x="1238" y="484" class="type">number</text><text x="1332" y="484" text-anchor="end" class="flag"></text><g transform="translate(946,498)"><circle cx="5" cy="5" r="3.2" fill="#7a7a7a"/></g><text x="962" y="508" class="field">createdAt</text><text x="1238" y="508" class="type">date</text><text x="1332" y="508" text-anchor="end" class="flag"></text><g transform="translate(946,522)"><circle cx="5" cy="5" r="3.2" fill="#7a7a7a"/></g><text x="962" y="532" class="field">updatedAt</text><text x="1238" y="532" class="type">date</text><text x="1332" y="532" text-anchor="end" class="flag"></text></g><g filter="url(#shadow)"><rect x="90" y="90" width="420" height="326" class="card"/><rect x="90" y="90" width="420" height="36" fill="#10b5f5"/><text x="300.0" y="114" text-anchor="middle" class="box-title">host_applications</text><g transform="translate(106,132)"><rect x="0" y="0" width="10" height="10" rx="2" class="pk"/></g><text x="122" y="142" class="field">_id</text><text x="398" y="142" class="type">objectId</text><text x="492" y="142" text-anchor="end" class="flag">PK</text><g transform="translate(106,156)"><rect x="0" y="0" width="10" height="10" rx="2" class="fk"/></g><text x="122" y="166" class="field">applicantMemberId</text><text x="398" y="166" class="type">objectId</text><text x="492" y="166" text-anchor="end" class="flag">FK</text><g transform="translate(106,180)"><circle cx="5" cy="5" r="3.2" fill="#7a7a7a"/></g><text x="122" y="190" class="field">businessName</text><text x="398" y="190" class="type">string</text><text x="492" y="190" text-anchor="end" class="flag">NN</text><g transform="translate(106,204)"><circle cx="5" cy="5" r="3.2" fill="#7a7a7a"/></g><text x="122" y="214" class="field">businessEmail</text><text x="398" y="214" class="type">string</text><text x="492" y="214" text-anchor="end" class="flag"></text><g transform="translate(106,228)"><circle cx="5" cy="5" r="3.2" fill="#7a7a7a"/></g><text x="122" y="238" class="field">intendedHotelName</text><text x="398" y="238" class="type">string</text><text x="492" y="238" text-anchor="end" class="flag"></text><g transform="translate(106,252)"><circle cx="5" cy="5" r="3.2" fill="#7a7a7a"/></g><text x="122" y="262" class="field">hotelType</text><text x="398" y="262" class="type">enum</text><text x="492" y="262" text-anchor="end" class="flag">NN</text><g transform="translate(106,276)"><circle cx="5" cy="5" r="3.2" fill="#7a7a7a"/></g><text x="122" y="286" class="field">status</text><text x="398" y="286" class="type">enum</text><text x="492" y="286" text-anchor="end" class="flag">NN</text><g transform="translate(106,300)"><rect x="0" y="0" width="10" height="10" rx="2" class="fk"/></g><text x="122" y="310" class="field">reviewedByMemberId</text><text x="398" y="310" class="type">objectId</text><text x="492" y="310" text-anchor="end" class="flag">FK</text><g transform="translate(106,324)"><circle cx="5" cy="5" r="3.2" fill="#7a7a7a"/></g><text x="122" y="334" class="field">reviewedAt</text><text x="398" y="334" class="type">date</text><text x="492" y="334" text-anchor="end" class="flag"></text><g transform="translate(106,348)"><circle cx="5" cy="5" r="3.2" fill="#7a7a7a"/></g><text x="122" y="358" class="field">createdAt</text><text x="398" y="358" class="type">date</text><text x="492" y="358" text-anchor="end" class="flag"></text></g><g filter="url(#shadow)"><rect x="90" y="430" width="340" height="206" class="card"/><rect x="90" y="430" width="340" height="36" fill="#10b5f5"/><text x="260.0" y="454" text-anchor="middle" class="box-title">likes</text><g transform="translate(106,472)"><rect x="0" y="0" width="10" height="10" rx="2" class="pk"/></g><text x="122" y="482" class="field">_id</text><text x="318" y="482" class="type">objectId</text><text x="412" y="482" text-anchor="end" class="flag">PK</text><g transform="translate(106,496)"><circle cx="5" cy="5" r="3.2" fill="#7a7a7a"/></g><text x="122" y="506" class="field">likeGroup</text><text x="318" y="506" class="type">enum</text><text x="412" y="506" text-anchor="end" class="flag">NN</text><g transform="translate(106,520)"><circle cx="5" cy="5" r="3.2" fill="#7a7a7a"/></g><text x="122" y="530" class="field">likeRefId</text><text x="318" y="530" class="type">objectId</text><text x="412" y="530" text-anchor="end" class="flag">NN</text><g transform="translate(106,544)"><rect x="0" y="0" width="10" height="10" rx="2" class="fk"/></g><text x="122" y="554" class="field">memberId</text><text x="318" y="554" class="type">objectId</text><text x="412" y="554" text-anchor="end" class="flag">FK</text><g transform="translate(106,568)"><circle cx="5" cy="5" r="3.2" fill="#7a7a7a"/></g><text x="122" y="578" class="field">createdAt</text><text x="318" y="578" class="type">date</text><text x="412" y="578" text-anchor="end" class="flag"></text></g><g filter="url(#shadow)"><rect x="90" y="690" width="340" height="206" class="card"/><rect x="90" y="690" width="340" height="36" fill="#10b5f5"/><text x="260.0" y="714" text-anchor="middle" class="box-title">views</text><g transform="translate(106,732)"><rect x="0" y="0" width="10" height="10" rx="2" class="pk"/></g><text x="122" y="742" class="field">_id</text><text x="318" y="742" class="type">objectId</text><text x="412" y="742" text-anchor="end" class="flag">PK</text><g transform="translate(106,756)"><circle cx="5" cy="5" r="3.2" fill="#7a7a7a"/></g><text x="122" y="766" class="field">viewGroup</text><text x="318" y="766" class="type">enum</text><text x="412" y="766" text-anchor="end" class="flag">NN</text><g transform="translate(106,780)"><circle cx="5" cy="5" r="3.2" fill="#7a7a7a"/></g><text x="122" y="790" class="field">viewRefId</text><text x="318" y="790" class="type">objectId</text><text x="412" y="790" text-anchor="end" class="flag">NN</text><g transform="translate(106,804)"><rect x="0" y="0" width="10" height="10" rx="2" class="fk"/></g><text x="122" y="814" class="field">memberId</text><text x="318" y="814" class="type">objectId</text><text x="412" y="814" text-anchor="end" class="flag">FK</text><g transform="translate(106,828)"><circle cx="5" cy="5" r="3.2" fill="#7a7a7a"/></g><text x="122" y="838" class="field">createdAt</text><text x="318" y="838" class="type">date</text><text x="412" y="838" text-anchor="end" class="flag"></text></g><g filter="url(#shadow)"><rect x="90" y="950" width="340" height="182" class="card"/><rect x="90" y="950" width="340" height="36" fill="#ff4747"/><text x="260.0" y="974" text-anchor="middle" class="box-title">follows</text><g transform="translate(106,992)"><rect x="0" y="0" width="10" height="10" rx="2" class="pk"/></g><text x="122" y="1002" class="field">_id</text><text x="318" y="1002" class="type">objectId</text><text x="412" y="1002" text-anchor="end" class="flag">PK</text><g transform="translate(106,1016)"><rect x="0" y="0" width="10" height="10" rx="2" class="fk"/></g><text x="122" y="1026" class="field">followerId</text><text x="318" y="1026" class="type">objectId</text><text x="412" y="1026" text-anchor="end" class="flag">FK</text><g transform="translate(106,1040)"><rect x="0" y="0" width="10" height="10" rx="2" class="fk"/></g><text x="122" y="1050" class="field">followingId</text><text x="318" y="1050" class="type">objectId</text><text x="412" y="1050" text-anchor="end" class="flag">FK</text><g transform="translate(106,1064)"><circle cx="5" cy="5" r="3.2" fill="#7a7a7a"/></g><text x="122" y="1074" class="field">createdAt</text><text x="318" y="1074" class="type">date</text><text x="412" y="1074" text-anchor="end" class="flag"></text></g><g filter="url(#shadow)"><rect x="470" y="1240" width="420" height="326" class="card"/><rect x="470" y="1240" width="420" height="36" fill="#10b5f5"/><text x="680.0" y="1264" text-anchor="middle" class="box-title">searchhistories</text><g transform="translate(486,1282)"><rect x="0" y="0" width="10" height="10" rx="2" class="pk"/></g><text x="502" y="1292" class="field">_id</text><text x="778" y="1292" class="type">objectId</text><text x="872" y="1292" text-anchor="end" class="flag">PK</text><g transform="translate(486,1306)"><rect x="0" y="0" width="10" height="10" rx="2" class="fk"/></g><text x="502" y="1316" class="field">memberId</text><text x="778" y="1316" class="type">objectId</text><text x="872" y="1316" text-anchor="end" class="flag">FK</text><g transform="translate(486,1330)"><circle cx="5" cy="5" r="3.2" fill="#7a7a7a"/></g><text x="502" y="1340" class="field">location</text><text x="778" y="1340" class="type">enum</text><text x="872" y="1340" text-anchor="end" class="flag"></text><g transform="translate(486,1354)"><circle cx="5" cy="5" r="3.2" fill="#7a7a7a"/></g><text x="502" y="1364" class="field">priceMin</text><text x="778" y="1364" class="type">number</text><text x="872" y="1364" text-anchor="end" class="flag"></text><g transform="translate(486,1378)"><circle cx="5" cy="5" r="3.2" fill="#7a7a7a"/></g><text x="502" y="1388" class="field">priceMax</text><text x="778" y="1388" class="type">number</text><text x="872" y="1388" text-anchor="end" class="flag"></text><g transform="translate(486,1402)"><circle cx="5" cy="5" r="3.2" fill="#7a7a7a"/></g><text x="502" y="1412" class="field">purpose</text><text x="778" y="1412" class="type">enum</text><text x="872" y="1412" text-anchor="end" class="flag"></text><g transform="translate(486,1426)"><circle cx="5" cy="5" r="3.2" fill="#7a7a7a"/></g><text x="502" y="1436" class="field">guestCount</text><text x="778" y="1436" class="type">number</text><text x="872" y="1436" text-anchor="end" class="flag"></text><g transform="translate(486,1450)"><circle cx="5" cy="5" r="3.2" fill="#7a7a7a"/></g><text x="502" y="1460" class="field">text</text><text x="778" y="1460" class="type">string</text><text x="872" y="1460" text-anchor="end" class="flag"></text><g transform="translate(486,1474)"><circle cx="5" cy="5" r="3.2" fill="#7a7a7a"/></g><text x="502" y="1484" class="field">fingerprint</text><text x="778" y="1484" class="type">string</text><text x="872" y="1484" text-anchor="end" class="flag"></text><g transform="translate(486,1498)"><circle cx="5" cy="5" r="3.2" fill="#7a7a7a"/></g><text x="502" y="1508" class="field">createdAt</text><text x="778" y="1508" class="type">date</text><text x="872" y="1508" text-anchor="end" class="flag"></text></g><g filter="url(#shadow)"><rect x="980" y="620" width="460" height="566" class="card"/><rect x="980" y="620" width="460" height="36" fill="#76c442"/><text x="1210.0" y="644" text-anchor="middle" class="box-title">hotels</text><g transform="translate(996,662)"><rect x="0" y="0" width="10" height="10" rx="2" class="pk"/></g><text x="1012" y="672" class="field">_id</text><text x="1328" y="672" class="type">objectId</text><text x="1422" y="672" text-anchor="end" class="flag">PK</text><g transform="translate(996,686)"><rect x="0" y="0" width="10" height="10" rx="2" class="fk"/></g><text x="1012" y="696" class="field">memberId</text><text x="1328" y="696" class="type">objectId</text><text x="1422" y="696" text-anchor="end" class="flag">FK</text><g transform="translate(996,710)"><circle cx="5" cy="5" r="3.2" fill="#7a7a7a"/></g><text x="1012" y="720" class="field">hotelType</text><text x="1328" y="720" class="type">enum</text><text x="1422" y="720" text-anchor="end" class="flag">NN</text><g transform="translate(996,734)"><circle cx="5" cy="5" r="3.2" fill="#7a7a7a"/></g><text x="1012" y="744" class="field">hotelTitle</text><text x="1328" y="744" class="type">string</text><text x="1422" y="744" text-anchor="end" class="flag">NN</text><g transform="translate(996,758)"><circle cx="5" cy="5" r="3.2" fill="#7a7a7a"/></g><text x="1012" y="768" class="field">hotelDesc</text><text x="1328" y="768" class="type">string</text><text x="1422" y="768" text-anchor="end" class="flag"></text><g transform="translate(996,782)"><circle cx="5" cy="5" r="3.2" fill="#7a7a7a"/></g><text x="1012" y="792" class="field">hotelLocation</text><text x="1328" y="792" class="type">enum</text><text x="1422" y="792" text-anchor="end" class="flag">NN</text><g transform="translate(996,806)"><circle cx="5" cy="5" r="3.2" fill="#7a7a7a"/></g><text x="1012" y="816" class="field">starRating</text><text x="1328" y="816" class="type">number</text><text x="1422" y="816" text-anchor="end" class="flag"></text><g transform="translate(996,830)"><circle cx="5" cy="5" r="3.2" fill="#7a7a7a"/></g><text x="1012" y="840" class="field">verificationStatus</text><text x="1328" y="840" class="type">enum</text><text x="1422" y="840" text-anchor="end" class="flag"></text><g transform="translate(996,854)"><circle cx="5" cy="5" r="3.2" fill="#7a7a7a"/></g><text x="1012" y="864" class="field">badgeLevel</text><text x="1328" y="864" class="type">enum</text><text x="1422" y="864" text-anchor="end" class="flag"></text><g transform="translate(996,878)"><circle cx="5" cy="5" r="3.2" fill="#7a7a7a"/></g><text x="1012" y="888" class="field">cancellationPolicy</text><text x="1328" y="888" class="type">enum</text><text x="1422" y="888" text-anchor="end" class="flag"></text><g transform="translate(996,902)"><circle cx="5" cy="5" r="3.2" fill="#7a7a7a"/></g><text x="1012" y="912" class="field">hotelViews</text><text x="1328" y="912" class="type">number</text><text x="1422" y="912" text-anchor="end" class="flag"></text><g transform="translate(996,926)"><circle cx="5" cy="5" r="3.2" fill="#7a7a7a"/></g><text x="1012" y="936" class="field">hotelLikes</text><text x="1328" y="936" class="type">number</text><text x="1422" y="936" text-anchor="end" class="flag"></text><g transform="translate(996,950)"><circle cx="5" cy="5" r="3.2" fill="#7a7a7a"/></g><text x="1012" y="960" class="field">hotelReviews</text><text x="1328" y="960" class="type">number</text><text x="1422" y="960" text-anchor="end" class="flag"></text><g transform="translate(996,974)"><circle cx="5" cy="5" r="3.2" fill="#7a7a7a"/></g><text x="1012" y="984" class="field">hotelRating</text><text x="1328" y="984" class="type">number</text><text x="1422" y="984" text-anchor="end" class="flag"></text><g transform="translate(996,998)"><circle cx="5" cy="5" r="3.2" fill="#7a7a7a"/></g><text x="1012" y="1008" class="field">hotelRank</text><text x="1328" y="1008" class="type">number</text><text x="1422" y="1008" text-anchor="end" class="flag"></text><g transform="translate(996,1022)"><circle cx="5" cy="5" r="3.2" fill="#7a7a7a"/></g><text x="1012" y="1032" class="field">startingPrice</text><text x="1328" y="1032" class="type">number</text><text x="1422" y="1032" text-anchor="end" class="flag"></text><g transform="translate(996,1046)"><circle cx="5" cy="5" r="3.2" fill="#7a7a7a"/></g><text x="1012" y="1056" class="field">warningStrikes</text><text x="1328" y="1056" class="type">number</text><text x="1422" y="1056" text-anchor="end" class="flag"></text><g transform="translate(996,1070)"><circle cx="5" cy="5" r="3.2" fill="#7a7a7a"/></g><text x="1012" y="1080" class="field">hotelStatus</text><text x="1328" y="1080" class="type">enum</text><text x="1422" y="1080" text-anchor="end" class="flag"></text><g transform="translate(996,1094)"><circle cx="5" cy="5" r="3.2" fill="#7a7a7a"/></g><text x="1012" y="1104" class="field">createdAt</text><text x="1328" y="1104" class="type">date</text><text x="1422" y="1104" text-anchor="end" class="flag"></text><g transform="translate(996,1118)"><circle cx="5" cy="5" r="3.2" fill="#7a7a7a"/></g><text x="1012" y="1128" class="field">updatedAt</text><text x="1328" y="1128" class="type">date</text><text x="1422" y="1128" text-anchor="end" class="flag"></text></g><g filter="url(#shadow)"><rect x="1000" y="1245" width="420" height="518" class="card"/><rect x="1000" y="1245" width="420" height="36" fill="#76c442"/><text x="1210.0" y="1269" text-anchor="middle" class="box-title">rooms</text><g transform="translate(1016,1287)"><rect x="0" y="0" width="10" height="10" rx="2" class="pk"/></g><text x="1032" y="1297" class="field">_id</text><text x="1308" y="1297" class="type">objectId</text><text x="1402" y="1297" text-anchor="end" class="flag">PK</text><g transform="translate(1016,1311)"><rect x="0" y="0" width="10" height="10" rx="2" class="fk"/></g><text x="1032" y="1321" class="field">hotelId</text><text x="1308" y="1321" class="type">objectId</text><text x="1402" y="1321" text-anchor="end" class="flag">FK</text><g transform="translate(1016,1335)"><circle cx="5" cy="5" r="3.2" fill="#7a7a7a"/></g><text x="1032" y="1345" class="field">roomType</text><text x="1308" y="1345" class="type">enum</text><text x="1402" y="1345" text-anchor="end" class="flag">NN</text><g transform="translate(1016,1359)"><circle cx="5" cy="5" r="3.2" fill="#7a7a7a"/></g><text x="1032" y="1369" class="field">roomNumber</text><text x="1308" y="1369" class="type">string</text><text x="1402" y="1369" text-anchor="end" class="flag"></text><g transform="translate(1016,1383)"><circle cx="5" cy="5" r="3.2" fill="#7a7a7a"/></g><text x="1032" y="1393" class="field">roomName</text><text x="1308" y="1393" class="type">string</text><text x="1402" y="1393" text-anchor="end" class="flag">NN</text><g transform="translate(1016,1407)"><circle cx="5" cy="5" r="3.2" fill="#7a7a7a"/></g><text x="1032" y="1417" class="field">maxOccupancy</text><text x="1308" y="1417" class="type">number</text><text x="1402" y="1417" text-anchor="end" class="flag">NN</text><g transform="translate(1016,1431)"><circle cx="5" cy="5" r="3.2" fill="#7a7a7a"/></g><text x="1032" y="1441" class="field">bedType</text><text x="1308" y="1441" class="type">enum</text><text x="1402" y="1441" text-anchor="end" class="flag">NN</text><g transform="translate(1016,1455)"><circle cx="5" cy="5" r="3.2" fill="#7a7a7a"/></g><text x="1032" y="1465" class="field">bedCount</text><text x="1308" y="1465" class="type">number</text><text x="1402" y="1465" text-anchor="end" class="flag">NN</text><g transform="translate(1016,1479)"><circle cx="5" cy="5" r="3.2" fill="#7a7a7a"/></g><text x="1032" y="1489" class="field">basePrice</text><text x="1308" y="1489" class="type">number</text><text x="1402" y="1489" text-anchor="end" class="flag">NN</text><g transform="translate(1016,1503)"><circle cx="5" cy="5" r="3.2" fill="#7a7a7a"/></g><text x="1032" y="1513" class="field">weekendSurcharge</text><text x="1308" y="1513" class="type">number</text><text x="1402" y="1513" text-anchor="end" class="flag"></text><g transform="translate(1016,1527)"><circle cx="5" cy="5" r="3.2" fill="#7a7a7a"/></g><text x="1032" y="1537" class="field">roomSize</text><text x="1308" y="1537" class="type">number</text><text x="1402" y="1537" text-anchor="end" class="flag"></text><g transform="translate(1016,1551)"><circle cx="5" cy="5" r="3.2" fill="#7a7a7a"/></g><text x="1032" y="1561" class="field">viewType</text><text x="1308" y="1561" class="type">enum</text><text x="1402" y="1561" text-anchor="end" class="flag"></text><g transform="translate(1016,1575)"><circle cx="5" cy="5" r="3.2" fill="#7a7a7a"/></g><text x="1032" y="1585" class="field">totalRooms</text><text x="1308" y="1585" class="type">number</text><text x="1402" y="1585" text-anchor="end" class="flag">NN</text><g transform="translate(1016,1599)"><circle cx="5" cy="5" r="3.2" fill="#7a7a7a"/></g><text x="1032" y="1609" class="field">availableRooms</text><text x="1308" y="1609" class="type">number</text><text x="1402" y="1609" text-anchor="end" class="flag">NN</text><g transform="translate(1016,1623)"><circle cx="5" cy="5" r="3.2" fill="#7a7a7a"/></g><text x="1032" y="1633" class="field">currentViewers</text><text x="1308" y="1633" class="type">number</text><text x="1402" y="1633" text-anchor="end" class="flag"></text><g transform="translate(1016,1647)"><circle cx="5" cy="5" r="3.2" fill="#7a7a7a"/></g><text x="1032" y="1657" class="field">roomStatus</text><text x="1308" y="1657" class="type">enum</text><text x="1402" y="1657" text-anchor="end" class="flag"></text><g transform="translate(1016,1671)"><circle cx="5" cy="5" r="3.2" fill="#7a7a7a"/></g><text x="1032" y="1681" class="field">createdAt</text><text x="1308" y="1681" class="type">date</text><text x="1402" y="1681" text-anchor="end" class="flag"></text><g transform="translate(1016,1695)"><circle cx="5" cy="5" r="3.2" fill="#7a7a7a"/></g><text x="1032" y="1705" class="field">updatedAt</text><text x="1308" y="1705" class="type">date</text><text x="1402" y="1705" text-anchor="end" class="flag"></text></g><g filter="url(#shadow)"><rect x="1810" y="1260" width="500" height="494" class="card"/><rect x="1810" y="1260" width="500" height="36" fill="#76c442"/><text x="2060.0" y="1284" text-anchor="middle" class="box-title">bookings</text><g transform="translate(1826,1302)"><rect x="0" y="0" width="10" height="10" rx="2" class="pk"/></g><text x="1842" y="1312" class="field">_id</text><text x="2198" y="1312" class="type">objectId</text><text x="2292" y="1312" text-anchor="end" class="flag">PK</text><g transform="translate(1826,1326)"><rect x="0" y="0" width="10" height="10" rx="2" class="fk"/></g><text x="1842" y="1336" class="field">guestId</text><text x="2198" y="1336" class="type">objectId</text><text x="2292" y="1336" text-anchor="end" class="flag">FK</text><g transform="translate(1826,1350)"><rect x="0" y="0" width="10" height="10" rx="2" class="fk"/></g><text x="1842" y="1360" class="field">hotelId</text><text x="2198" y="1360" class="type">objectId</text><text x="2292" y="1360" text-anchor="end" class="flag">FK</text><g transform="translate(1826,1374)"><circle cx="5" cy="5" r="3.2" fill="#7a7a7a"/></g><text x="1842" y="1384" class="field">checkInDate</text><text x="2198" y="1384" class="type">date</text><text x="2292" y="1384" text-anchor="end" class="flag">NN</text><g transform="translate(1826,1398)"><circle cx="5" cy="5" r="3.2" fill="#7a7a7a"/></g><text x="1842" y="1408" class="field">checkOutDate</text><text x="2198" y="1408" class="type">date</text><text x="2292" y="1408" text-anchor="end" class="flag">NN</text><g transform="translate(1826,1422)"><circle cx="5" cy="5" r="3.2" fill="#7a7a7a"/></g><text x="1842" y="1432" class="field">nights</text><text x="2198" y="1432" class="type">number</text><text x="2292" y="1432" text-anchor="end" class="flag">NN</text><g transform="translate(1826,1446)"><circle cx="5" cy="5" r="3.2" fill="#7a7a7a"/></g><text x="1842" y="1456" class="field">adultCount</text><text x="2198" y="1456" class="type">number</text><text x="2292" y="1456" text-anchor="end" class="flag">NN</text><g transform="translate(1826,1470)"><circle cx="5" cy="5" r="3.2" fill="#7a7a7a"/></g><text x="1842" y="1480" class="field">childCount</text><text x="2198" y="1480" class="type">number</text><text x="2292" y="1480" text-anchor="end" class="flag"></text><g transform="translate(1826,1494)"><circle cx="5" cy="5" r="3.2" fill="#7a7a7a"/></g><text x="1842" y="1504" class="field">subtotal</text><text x="2198" y="1504" class="type">number</text><text x="2292" y="1504" text-anchor="end" class="flag">NN</text><g transform="translate(1826,1518)"><circle cx="5" cy="5" r="3.2" fill="#7a7a7a"/></g><text x="1842" y="1528" class="field">totalPrice</text><text x="2198" y="1528" class="type">number</text><text x="2292" y="1528" text-anchor="end" class="flag">NN</text><g transform="translate(1826,1542)"><circle cx="5" cy="5" r="3.2" fill="#7a7a7a"/></g><text x="1842" y="1552" class="field">paymentMethod</text><text x="2198" y="1552" class="type">enum</text><text x="2292" y="1552" text-anchor="end" class="flag">NN</text><g transform="translate(1826,1566)"><circle cx="5" cy="5" r="3.2" fill="#7a7a7a"/></g><text x="1842" y="1576" class="field">paymentStatus</text><text x="2198" y="1576" class="type">enum</text><text x="2292" y="1576" text-anchor="end" class="flag"></text><g transform="translate(1826,1590)"><circle cx="5" cy="5" r="3.2" fill="#7a7a7a"/></g><text x="1842" y="1600" class="field">bookingStatus</text><text x="2198" y="1600" class="type">enum</text><text x="2292" y="1600" text-anchor="end" class="flag"></text><g transform="translate(1826,1614)"><rect x="0" y="0" width="10" height="10" rx="2" class="fk"/></g><text x="1842" y="1624" class="field">cancelledByMemberId</text><text x="2198" y="1624" class="type">objectId</text><text x="2292" y="1624" text-anchor="end" class="flag">FK</text><g transform="translate(1826,1638)"><circle cx="5" cy="5" r="3.2" fill="#7a7a7a"/></g><text x="1842" y="1648" class="field">bookingCode</text><text x="2198" y="1648" class="type">string</text><text x="2292" y="1648" text-anchor="end" class="flag">UK</text><g transform="translate(1826,1662)"><circle cx="5" cy="5" r="3.2" fill="#7a7a7a"/></g><text x="1842" y="1672" class="field">createdAt</text><text x="2198" y="1672" class="type">date</text><text x="2292" y="1672" text-anchor="end" class="flag"></text><g transform="translate(1826,1686)"><circle cx="5" cy="5" r="3.2" fill="#7a7a7a"/></g><text x="1842" y="1696" class="field">updatedAt</text><text x="2198" y="1696" class="type">date</text><text x="2292" y="1696" text-anchor="end" class="flag"></text></g><g filter="url(#shadow)"><rect x="1810" y="180" width="420" height="398" class="card"/><rect x="1810" y="180" width="420" height="36" fill="#10b5f5"/><text x="2020.0" y="204" text-anchor="middle" class="box-title">reviews</text><g transform="translate(1826,222)"><rect x="0" y="0" width="10" height="10" rx="2" class="pk"/></g><text x="1842" y="232" class="field">_id</text><text x="2118" y="232" class="type">objectId</text><text x="2212" y="232" text-anchor="end" class="flag">PK</text><g transform="translate(1826,246)"><rect x="0" y="0" width="10" height="10" rx="2" class="fk"/></g><text x="1842" y="256" class="field">reviewerId</text><text x="2118" y="256" class="type">objectId</text><text x="2212" y="256" text-anchor="end" class="flag">FK</text><g transform="translate(1826,270)"><rect x="0" y="0" width="10" height="10" rx="2" class="fk"/></g><text x="1842" y="280" class="field">hotelId</text><text x="2118" y="280" class="type">objectId</text><text x="2212" y="280" text-anchor="end" class="flag">FK</text><g transform="translate(1826,294)"><rect x="0" y="0" width="10" height="10" rx="2" class="fk"/></g><text x="1842" y="304" class="field">bookingId</text><text x="2118" y="304" class="type">objectId</text><text x="2212" y="304" text-anchor="end" class="flag">FK</text><g transform="translate(1826,318)"><circle cx="5" cy="5" r="3.2" fill="#7a7a7a"/></g><text x="1842" y="328" class="field">verifiedStay</text><text x="2118" y="328" class="type">bool</text><text x="2212" y="328" text-anchor="end" class="flag"></text><g transform="translate(1826,342)"><circle cx="5" cy="5" r="3.2" fill="#7a7a7a"/></g><text x="1842" y="352" class="field">stayDate</text><text x="2118" y="352" class="type">date</text><text x="2212" y="352" text-anchor="end" class="flag">NN</text><g transform="translate(1826,366)"><circle cx="5" cy="5" r="3.2" fill="#7a7a7a"/></g><text x="1842" y="376" class="field">overallRating</text><text x="2118" y="376" class="type">number</text><text x="2212" y="376" text-anchor="end" class="flag">NN</text><g transform="translate(1826,390)"><circle cx="5" cy="5" r="3.2" fill="#7a7a7a"/></g><text x="1842" y="400" class="field">reviewTitle</text><text x="2118" y="400" class="type">string</text><text x="2212" y="400" text-anchor="end" class="flag"></text><g transform="translate(1826,414)"><circle cx="5" cy="5" r="3.2" fill="#7a7a7a"/></g><text x="1842" y="424" class="field">reviewText</text><text x="2118" y="424" class="type">string</text><text x="2212" y="424" text-anchor="end" class="flag">NN</text><g transform="translate(1826,438)"><circle cx="5" cy="5" r="3.2" fill="#7a7a7a"/></g><text x="1842" y="448" class="field">helpfulCount</text><text x="2118" y="448" class="type">number</text><text x="2212" y="448" text-anchor="end" class="flag"></text><g transform="translate(1826,462)"><circle cx="5" cy="5" r="3.2" fill="#7a7a7a"/></g><text x="1842" y="472" class="field">reviewViews</text><text x="2118" y="472" class="type">number</text><text x="2212" y="472" text-anchor="end" class="flag"></text><g transform="translate(1826,486)"><circle cx="5" cy="5" r="3.2" fill="#7a7a7a"/></g><text x="1842" y="496" class="field">reviewStatus</text><text x="2118" y="496" class="type">enum</text><text x="2212" y="496" text-anchor="end" class="flag"></text><g transform="translate(1826,510)"><circle cx="5" cy="5" r="3.2" fill="#7a7a7a"/></g><text x="1842" y="520" class="field">createdAt</text><text x="2118" y="520" class="type">date</text><text x="2212" y="520" text-anchor="end" class="flag"></text></g><g filter="url(#shadow)"><rect x="1810" y="700" width="500" height="398" class="card"/><rect x="1810" y="700" width="500" height="36" fill="#f4b400"/><text x="2060.0" y="724" text-anchor="middle" class="box-title">chats</text><g transform="translate(1826,742)"><rect x="0" y="0" width="10" height="10" rx="2" class="pk"/></g><text x="1842" y="752" class="field">_id</text><text x="2198" y="752" class="type">objectId</text><text x="2292" y="752" text-anchor="end" class="flag">PK</text><g transform="translate(1826,766)"><rect x="0" y="0" width="10" height="10" rx="2" class="fk"/></g><text x="1842" y="776" class="field">guestId</text><text x="2198" y="776" class="type">objectId</text><text x="2292" y="776" text-anchor="end" class="flag">FK</text><g transform="translate(1826,790)"><rect x="0" y="0" width="10" height="10" rx="2" class="fk"/></g><text x="1842" y="800" class="field">hotelId</text><text x="2198" y="800" class="type">objectId</text><text x="2292" y="800" text-anchor="end" class="flag">FK</text><g transform="translate(1826,814)"><circle cx="5" cy="5" r="3.2" fill="#7a7a7a"/></g><text x="1842" y="824" class="field">chatScope</text><text x="2198" y="824" class="type">enum</text><text x="2292" y="824" text-anchor="end" class="flag">NN</text><g transform="translate(1826,838)"><rect x="0" y="0" width="10" height="10" rx="2" class="fk"/></g><text x="1842" y="848" class="field">assignedAgentId</text><text x="2198" y="848" class="type">objectId</text><text x="2292" y="848" text-anchor="end" class="flag">FK</text><g transform="translate(1826,862)"><rect x="0" y="0" width="10" height="10" rx="2" class="fk"/></g><text x="1842" y="872" class="field">bookingId</text><text x="2198" y="872" class="type">objectId</text><text x="2292" y="872" text-anchor="end" class="flag">FK</text><g transform="translate(1826,886)"><circle cx="5" cy="5" r="3.2" fill="#7a7a7a"/></g><text x="1842" y="896" class="field">supportTopic</text><text x="2198" y="896" class="type">string</text><text x="2292" y="896" text-anchor="end" class="flag"></text><g transform="translate(1826,910)"><circle cx="5" cy="5" r="3.2" fill="#7a7a7a"/></g><text x="1842" y="920" class="field">sourcePath</text><text x="2198" y="920" class="type">string</text><text x="2292" y="920" text-anchor="end" class="flag"></text><g transform="translate(1826,934)"><circle cx="5" cy="5" r="3.2" fill="#7a7a7a"/></g><text x="1842" y="944" class="field">chatStatus</text><text x="2198" y="944" class="type">enum</text><text x="2292" y="944" text-anchor="end" class="flag"></text><g transform="translate(1826,958)"><circle cx="5" cy="5" r="3.2" fill="#7a7a7a"/></g><text x="1842" y="968" class="field">unreadGuestMessages</text><text x="2198" y="968" class="type">number</text><text x="2292" y="968" text-anchor="end" class="flag"></text><g transform="translate(1826,982)"><circle cx="5" cy="5" r="3.2" fill="#7a7a7a"/></g><text x="1842" y="992" class="field">unreadAgentMessages</text><text x="2198" y="992" class="type">number</text><text x="2292" y="992" text-anchor="end" class="flag"></text><g transform="translate(1826,1006)"><circle cx="5" cy="5" r="3.2" fill="#7a7a7a"/></g><text x="1842" y="1016" class="field">lastMessageAt</text><text x="2198" y="1016" class="type">date</text><text x="2292" y="1016" text-anchor="end" class="flag"></text><g transform="translate(1826,1030)"><circle cx="5" cy="5" r="3.2" fill="#7a7a7a"/></g><text x="1842" y="1040" class="field">createdAt</text><text x="2198" y="1040" class="type">date</text><text x="2292" y="1040" text-anchor="end" class="flag"></text></g></svg>